<svg width="343" height="132" viewBox="0 0 343 132" fill="none" xmlns="http://www.w3.org/2000/svg">
<path fill-rule="evenodd" clip-rule="evenodd" d="M206.851 14.645H206.243V15.253H206.851V14.645Z" fill="#7C63FD"/>
<path d="M135.161 98.5222C141.825 98.5222 146.385 96.0092 148.843 90.9833C151.337 85.9202 152.584 80.2987 152.584 74.1187C152.584 68.5344 151.691 63.9924 149.904 60.4929C147.074 54.9831 142.197 52.2281 135.273 52.2281C129.13 52.2281 124.662 54.5735 121.87 59.2644C119.078 63.9552 117.682 69.614 117.682 76.2407C117.682 82.6069 119.078 87.912 121.87 92.1561C124.662 96.4001 129.093 98.5222 135.161 98.5222ZM135.552 43.4607C143.258 43.4607 149.773 46.0295 155.097 51.1671C160.421 56.3047 163.083 63.8621 163.083 73.8395C163.083 83.4817 160.737 91.4487 156.046 97.7404C151.355 104.032 144.077 107.178 134.212 107.178C125.984 107.178 119.45 104.404 114.611 98.8572C109.771 93.2729 107.351 85.7899 107.351 76.4083C107.351 66.3565 109.901 58.3523 115.001 52.3957C120.102 46.439 126.952 43.4607 135.552 43.4607ZM173.081 45.1919H182.63V55.5229C183.412 53.5125 185.329 51.074 188.382 48.2074C191.435 45.3036 194.953 43.8516 198.936 43.8516C199.122 43.8516 199.439 43.8702 199.885 43.9075C200.332 43.9447 201.095 44.0192 202.175 44.1309V54.7411C201.579 54.6294 201.021 54.5549 200.5 54.5177C200.016 54.4805 199.476 54.4619 198.88 54.4619C193.817 54.4619 189.927 56.0999 187.209 59.3761C184.491 62.615 183.132 66.3565 183.132 70.6006V105H173.081V45.1919ZM218.651 34.5817H208.599V22.9663H218.651V34.5817ZM199.106 120.134C203.611 119.985 206.31 119.575 207.203 118.905C208.134 118.272 208.599 116.243 208.599 112.818V45.4711H218.651V113.879C218.651 118.235 217.944 121.492 216.529 123.652C214.184 127.3 209.735 129.124 203.182 129.124C202.698 129.124 202.177 129.106 201.619 129.068C201.098 129.031 200.26 128.957 199.106 128.845V120.134ZM239.483 89.0847C239.483 91.9885 240.544 94.2781 242.666 95.9534C244.788 97.6287 247.301 98.4663 250.205 98.4663C253.741 98.4663 257.167 97.6473 260.48 96.0092C266.064 93.2915 268.856 88.8427 268.856 82.6627V74.5654C267.628 75.3472 266.046 75.9987 264.11 76.5199C262.174 77.0411 260.275 77.4134 258.414 77.6368L252.327 78.4186C248.678 78.9026 245.942 79.6658 244.118 80.7082C241.028 82.4579 239.483 85.2501 239.483 89.0847ZM263.83 68.7577C266.139 68.4599 267.684 67.4919 268.465 65.8539C268.912 64.9604 269.136 63.676 269.136 62.0007C269.136 58.5756 267.907 56.0999 265.45 54.5735C263.03 53.0099 259.549 52.2281 255.007 52.2281C249.758 52.2281 246.035 53.6428 243.839 56.4722C242.61 58.0358 241.81 60.3626 241.437 63.4526H232.056C232.242 56.0813 234.624 50.9623 239.204 48.0957C243.82 45.1919 249.162 43.7399 255.231 43.7399C262.267 43.7399 267.981 45.0802 272.374 47.7607C276.73 50.4411 278.908 54.6108 278.908 60.2696V94.7248C278.908 95.7672 279.113 96.6049 279.522 97.2378C279.969 97.8707 280.881 98.1871 282.259 98.1871C282.705 98.1871 283.208 98.1685 283.767 98.1313C284.325 98.0568 284.921 97.9637 285.554 97.8521V105.279C283.99 105.726 282.799 106.005 281.98 106.117C281.16 106.229 280.044 106.284 278.629 106.284C275.167 106.284 272.654 105.056 271.09 102.599C270.271 101.296 269.694 99.4529 269.359 97.0703C267.311 99.7507 264.37 102.078 260.536 104.051C256.701 106.024 252.476 107.01 247.859 107.01C242.312 107.01 237.77 105.335 234.234 101.984C230.734 98.5966 228.984 94.3712 228.984 89.308C228.984 83.7609 230.715 79.461 234.178 76.4083C237.64 73.3555 242.182 71.4754 247.803 70.7681L263.83 68.7577ZM293.43 45.1919H302.979V55.5229C303.761 53.5125 305.678 51.074 308.731 48.2074C311.783 45.3036 315.302 43.8516 319.285 43.8516C319.471 43.8516 319.788 43.8702 320.234 43.9075C320.681 43.9447 321.444 44.0192 322.524 44.1309V54.7411C321.928 54.6294 321.37 54.5549 320.849 54.5177C320.365 54.4805 319.825 54.4619 319.229 54.4619C314.166 54.4619 310.276 56.0999 307.558 59.3761C304.84 62.615 303.481 66.3565 303.481 70.6006V105H293.43V45.1919Z" fill="#7C63FD"/>
<path d="M332.271 36.119C332.309 35.8646 332.394 35.6411 332.502 35.4484C332.61 35.2557 332.764 35.0938 332.957 34.9705C333.142 34.8549 333.373 34.8009 333.658 34.7932C333.835 34.8009 333.997 34.8317 334.144 34.8934C334.298 34.9628 334.437 35.0553 334.545 35.1709C334.652 35.2865 334.737 35.4253 334.807 35.5794C334.876 35.7336 334.907 35.9031 334.915 36.0727H336.294C336.279 35.7104 336.209 35.379 336.078 35.0784C335.947 34.7778 335.77 34.5157 335.539 34.2999C335.308 34.0841 335.03 33.9145 334.706 33.7912C334.383 33.6679 334.028 33.6139 333.635 33.6139C333.134 33.6139 332.695 33.6987 332.325 33.876C331.955 34.0533 331.646 34.2845 331.4 34.5851C331.153 34.8857 330.968 35.2326 330.852 35.6334C330.737 36.0342 330.668 36.4504 330.668 36.8975V37.1056C330.668 37.5526 330.729 37.9688 330.845 38.3697C330.96 38.7705 331.145 39.1173 331.392 39.4102C331.639 39.7031 331.947 39.9421 332.317 40.1116C332.687 40.2812 333.126 40.3737 333.627 40.3737C333.99 40.3737 334.329 40.312 334.645 40.1964C334.961 40.0808 335.238 39.9189 335.477 39.7108C335.716 39.5027 335.909 39.2638 336.048 38.9863C336.186 38.7088 336.271 38.4159 336.279 38.0999H334.899C334.891 38.2617 334.853 38.4082 334.784 38.5469C334.714 38.6857 334.622 38.8013 334.506 38.9015C334.39 39.0017 334.259 39.0788 334.105 39.1327C333.959 39.1867 333.805 39.2021 333.643 39.2098C333.365 39.2021 333.134 39.1482 332.957 39.0325C332.764 38.9092 332.61 38.7473 332.502 38.5546C332.394 38.362 332.309 38.1307 332.271 37.8764C332.232 37.622 332.209 37.3599 332.209 37.1056V36.8975C332.209 36.6277 332.232 36.3733 332.271 36.119ZM333.751 29.2898C329.496 29.2898 326.043 32.7429 326.043 36.9977C326.043 41.2524 329.496 44.7055 333.751 44.7055C338.005 44.7055 341.459 41.2524 341.459 36.9977C341.459 32.7429 338.005 29.2898 333.751 29.2898ZM333.751 43.164C330.351 43.164 327.584 40.3968 327.584 36.9977C327.584 33.5985 330.351 30.8314 333.751 30.8314C337.15 30.8314 339.917 33.5985 339.917 36.9977C339.917 40.3968 337.15 43.164 333.751 43.164Z" fill="#7C63FD"/>
<path fill-rule="evenodd" clip-rule="evenodd" d="M29.7395 93.4499H23.9861L23.6761 93.4481C10.5718 93.2821 0 82.6075 0 69.4638V47.1096C0 33.966 10.5718 23.2913 23.6761 23.1254L23.9861 23.1235H46.3403C59.5874 23.1235 70.3264 33.8625 70.3264 47.1096V49.9515C68.3591 48.9386 66.1276 48.3668 63.7626 48.3668H60.6994V47.1096C60.6994 39.1794 54.2706 32.7505 46.3403 32.7505H23.9861C16.0558 32.7505 9.62697 39.1794 9.62697 47.1096V69.4638C9.62697 77.3941 16.0558 83.823 23.9861 83.823H27.0492V85.0801C27.0492 88.2032 28.0463 91.0935 29.7395 93.4499Z" fill="#7C63FD"/>
<path d="M63.7626 99.4392V109.066H41.4084V99.4392H63.7626ZM78.1217 85.0801V62.7258C78.1217 57.1606 74.9556 52.3348 70.3265 49.9514C68.3592 48.9385 66.1277 48.3667 63.7626 48.3667H60.6995H41.4084C33.4781 48.3667 27.0493 54.7956 27.0493 62.7258V83.8229V85.0801C27.0493 88.2032 28.0464 91.0934 29.7396 93.4499C32.3458 97.0769 36.6013 99.4392 41.4084 99.4392V109.066L41.0984 109.064C27.9941 108.898 17.4223 98.2237 17.4223 85.0801V62.7258C17.4223 49.5822 27.9941 38.9076 41.0984 38.7416L41.4084 38.7397H63.7626C77.0097 38.7397 87.7487 49.4787 87.7487 62.7258V85.0801C87.7487 98.3272 77.0097 109.066 63.7626 109.066V99.4392C71.6929 99.4392 78.1217 93.0103 78.1217 85.0801Z" fill="#7C63FD"/>
</svg>
