<svg width="344" height="132" viewBox="0 0 344 132" fill="none" xmlns="http://www.w3.org/2000/svg">
<path fill-rule="evenodd" clip-rule="evenodd" d="M207.495 14.645H206.887V15.253H207.495V14.645Z" fill="#7C63FD"/>
<path d="M135.806 98.5222C142.469 98.5222 147.03 96.0092 149.487 90.9833C151.981 85.9202 153.229 80.2987 153.229 74.1187C153.229 68.5344 152.335 63.9924 150.548 60.4929C147.719 54.9831 142.842 52.2281 135.917 52.2281C129.774 52.2281 125.307 54.5735 122.515 59.2644C119.723 63.9552 118.327 69.614 118.327 76.2407C118.327 82.6069 119.723 87.912 122.515 92.1561C125.307 96.4001 129.737 98.5222 135.806 98.5222ZM136.196 43.4607C143.903 43.4607 150.418 46.0295 155.742 51.1671C161.065 56.3047 163.727 63.8621 163.727 73.8395C163.727 83.4817 161.382 91.4487 156.691 97.7404C152 104.032 144.722 107.178 134.856 107.178C126.629 107.178 120.095 104.404 115.255 98.8572C110.415 93.2729 107.996 85.7899 107.996 76.4083C107.996 66.3565 110.546 58.3523 115.646 52.3957C120.746 46.439 127.597 43.4607 136.196 43.4607ZM173.725 45.1919H183.275V55.5229C184.056 53.5125 185.974 51.074 189.026 48.2074C192.079 45.3036 195.597 43.8516 199.581 43.8516C199.767 43.8516 200.083 43.8702 200.53 43.9075C200.977 43.9447 201.74 44.0192 202.82 44.1309V54.7411C202.224 54.6294 201.666 54.5549 201.144 54.5177C200.66 54.4805 200.121 54.4619 199.525 54.4619C194.462 54.4619 190.571 56.0999 187.854 59.3761C185.136 62.615 183.777 66.3565 183.777 70.6006V105H173.725V45.1919ZM219.296 34.5817H209.244V22.9663H219.296V34.5817ZM199.751 120.134C204.255 119.985 206.954 119.575 207.848 118.905C208.779 118.272 209.244 116.243 209.244 112.818V45.4711H219.296V113.879C219.296 118.235 218.588 121.492 217.174 123.652C214.828 127.3 210.379 129.124 203.827 129.124C203.343 129.124 202.822 129.106 202.263 129.068C201.742 129.031 200.905 128.957 199.751 128.845V120.134ZM240.127 89.0847C240.127 91.9885 241.188 94.2781 243.311 95.9534C245.433 97.6287 247.945 98.4663 250.849 98.4663C254.386 98.4663 257.811 97.6473 261.125 96.0092C266.709 93.2915 269.501 88.8427 269.501 82.6627V74.5654C268.272 75.3472 266.69 75.9987 264.754 76.5199C262.818 77.0411 260.92 77.4134 259.058 77.6368L252.971 78.4186C249.323 78.9026 246.587 79.6658 244.762 80.7082C241.672 82.4579 240.127 85.2501 240.127 89.0847ZM264.475 68.7577C266.783 68.4599 268.328 67.4919 269.11 65.8539C269.557 64.9604 269.78 63.676 269.78 62.0007C269.78 58.5756 268.552 56.0999 266.095 54.5735C263.675 53.0099 260.194 52.2281 255.652 52.2281C250.403 52.2281 246.68 53.6428 244.483 56.4722C243.255 58.0358 242.454 60.3626 242.082 63.4526H232.7C232.886 56.0813 235.269 50.9623 239.848 48.0957C244.465 45.1919 249.807 43.7399 255.875 43.7399C262.911 43.7399 268.626 45.0802 273.019 47.7607C277.375 50.4411 279.553 54.6108 279.553 60.2696V94.7248C279.553 95.7672 279.758 96.6049 280.167 97.2378C280.614 97.8707 281.526 98.1871 282.903 98.1871C283.35 98.1871 283.853 98.1685 284.411 98.1313C284.97 98.0568 285.565 97.9637 286.198 97.8521V105.279C284.635 105.726 283.443 106.005 282.624 106.117C281.805 106.229 280.688 106.284 279.274 106.284C275.811 106.284 273.298 105.056 271.735 102.599C270.916 101.296 270.339 99.4529 270.004 97.0703C267.956 99.7507 265.015 102.078 261.18 104.051C257.346 106.024 253.12 107.01 248.504 107.01C242.957 107.01 238.415 105.335 234.878 101.984C231.379 98.5966 229.629 94.3712 229.629 89.308C229.629 83.7609 231.36 79.461 234.822 76.4083C238.285 73.3555 242.827 71.4754 248.448 70.7681L264.475 68.7577ZM294.074 45.1919H303.623V55.5229C304.405 53.5125 306.323 51.074 309.375 48.2074C312.428 45.3036 315.946 43.8516 319.93 43.8516C320.116 43.8516 320.432 43.8702 320.879 43.9075C321.326 43.9447 322.089 44.0192 323.169 44.1309V54.7411C322.573 54.6294 322.015 54.5549 321.493 54.5177C321.009 54.4805 320.47 54.4619 319.874 54.4619C314.811 54.4619 310.92 56.0999 308.203 59.3761C305.485 62.615 304.126 66.3565 304.126 70.6006V105H294.074V45.1919Z" fill="#7C63FD"/>
<path d="M332.915 36.1187C332.954 35.8644 333.039 35.6408 333.147 35.4481C333.255 35.2554 333.409 35.0936 333.601 34.9702C333.786 34.8546 334.018 34.8007 334.303 34.793C334.48 34.8007 334.642 34.8315 334.788 34.8932C334.943 34.9625 335.081 35.055 335.189 35.1707C335.297 35.2863 335.382 35.425 335.451 35.5792C335.521 35.7333 335.551 35.9029 335.559 36.0725H336.939C336.923 35.7102 336.854 35.3788 336.723 35.0782C336.592 34.7776 336.415 34.5155 336.183 34.2997C335.952 34.0838 335.675 33.9143 335.351 33.7909C335.027 33.6676 334.673 33.6137 334.28 33.6137C333.779 33.6137 333.339 33.6984 332.969 33.8757C332.599 34.053 332.291 34.2842 332.044 34.5849C331.798 34.8855 331.613 35.2323 331.497 35.6331C331.381 36.0339 331.312 36.4502 331.312 36.8972V37.1053C331.312 37.5524 331.374 37.9686 331.489 38.3694C331.605 38.7702 331.79 39.1171 332.037 39.41C332.283 39.7029 332.592 39.9418 332.962 40.1114C333.332 40.281 333.771 40.3735 334.272 40.3735C334.634 40.3735 334.973 40.3118 335.289 40.1962C335.605 40.0806 335.883 39.9187 336.122 39.7106C336.361 39.5025 336.553 39.2635 336.692 38.986C336.831 38.7086 336.916 38.4157 336.923 38.0996H335.544C335.536 38.2615 335.497 38.408 335.428 38.5467C335.359 38.6854 335.266 38.8011 335.151 38.9013C335.035 39.0015 334.904 39.0785 334.75 39.1325C334.603 39.1864 334.449 39.2019 334.287 39.2096C334.01 39.2019 333.779 39.1479 333.601 39.0323C333.409 38.909 333.255 38.7471 333.147 38.5544C333.039 38.3617 332.954 38.1305 332.915 37.8761C332.877 37.6218 332.854 37.3597 332.854 37.1053V36.8972C332.854 36.6274 332.877 36.3731 332.915 36.1187ZM334.395 29.2896C330.141 29.2896 326.687 32.7427 326.687 36.9974C326.687 41.2522 330.141 44.7053 334.395 44.7053C338.65 44.7053 342.103 41.2522 342.103 36.9974C342.103 32.7427 338.65 29.2896 334.395 29.2896ZM334.395 43.1637C330.996 43.1637 328.229 40.3966 328.229 36.9974C328.229 33.5982 330.996 30.8311 334.395 30.8311C337.794 30.8311 340.562 33.5982 340.562 36.9974C340.562 40.3966 337.794 43.1637 334.395 43.1637Z" fill="#7C63FD"/>
<path fill-rule="evenodd" clip-rule="evenodd" d="M30.3842 93.4499H24.6307L24.3208 93.448C22.6185 93.4265 20.959 93.2276 19.3599 92.869C18.5218 90.4268 18.0669 87.8065 18.0669 85.08V82.2383C20.0342 83.2511 22.2657 83.8229 24.6307 83.8229H27.6939V85.0801C27.6939 88.2032 28.691 91.0934 30.3842 93.4499ZM61.3441 48.3667H64.4072C66.7723 48.3667 69.0038 48.9385 70.971 49.9514V47.1096C70.971 44.3831 70.5161 41.7629 69.6781 39.3207C67.982 38.9404 66.2181 38.7397 64.4072 38.7397H58.6537C60.347 41.0962 61.3441 43.9865 61.3441 47.1096V48.3667Z" fill="#7C63FD"/>
<path fill-rule="evenodd" clip-rule="evenodd" d="M58.6537 38.7397C60.347 41.0962 61.3441 43.9864 61.3441 47.1096L61.3441 48.3667H64.4072C66.7723 48.3667 69.0038 48.9385 70.9711 49.9514C75.6003 52.3348 78.7663 57.1606 78.7663 62.7258V85.08C78.7663 93.0103 72.3375 99.4392 64.4072 99.4392H42.053C37.2459 99.4392 32.9904 97.0769 30.3842 93.4499C28.691 91.0934 27.6939 88.2032 27.6939 85.08V83.8229H24.6307C22.2657 83.8229 20.0342 83.2511 18.0669 82.2382V85.08C18.0669 87.8065 18.5218 90.4268 19.3599 92.869C22.5619 102.2 31.3571 108.933 41.743 109.064L42.053 109.066H64.4072C77.6543 109.066 88.3933 98.3272 88.3933 85.08V62.7258C88.3933 51.2896 80.3896 41.7226 69.6781 39.3207C67.982 38.9404 66.2181 38.7397 64.4072 38.7397H58.6537Z" fill="#7C63FD"/>
<path d="M10.2716 47.1096C10.2716 45.931 10.4136 44.7857 10.6814 43.6896L19.7674 53.8382C18.6703 56.5868 18.0669 59.5859 18.0669 62.7258L18.0669 82.2383C13.4377 79.8548 10.2716 75.029 10.2716 69.4638L10.2716 47.1096ZM58.6537 38.7398L64.4072 38.7398C66.218 38.7398 67.982 38.9404 69.6781 39.3207C66.4443 29.8969 57.5056 23.1235 46.9849 23.1235L24.6307 23.1235L24.3207 23.1253C11.2164 23.2913 0.644619 33.9659 0.644619 47.1096L0.644619 69.4638C0.644619 80.9001 8.64828 90.4672 19.3599 92.869C18.5218 90.4268 18.0669 87.8065 18.0669 85.0801L18.0669 82.2383C20.0342 83.2511 22.2657 83.8229 24.6307 83.8229L27.6939 83.8229L27.6939 62.7258C27.6939 54.7956 34.1228 48.3667 42.053 48.3667L61.3441 48.3667L61.3441 47.1096C61.3441 43.9865 60.347 41.0962 58.6537 38.7398ZM58.6537 38.7398L42.053 38.7398L41.743 38.7416C35.8339 38.8164 30.4398 41.0281 26.2977 44.6393L17.4001 34.7011C19.5237 33.461 21.9942 32.7505 24.6307 32.7505L46.9849 32.7505C51.7921 32.7505 56.0475 35.1127 58.6537 38.7398Z" fill="#7C63FD"/>
</svg>
